<svg width="215" height="90" viewBox="0 0 215 90" fill="none" xmlns="http://www.w3.org/2000/svg">
<path d="M0 45C0 20.1472 20.1472 0 45 0H45.5502C50.9731 0 56.3525 0.968385 61.4351 2.85956L72.6266 7.02386C95.1221 15.3943 119.878 15.3943 142.373 7.02386L153.565 2.85956C158.647 0.968384 164.027 0 169.45 0H170C194.853 0 215 20.1472 215 45C215 69.8528 194.853 90 170 90H169.45C164.027 90 158.647 89.0316 153.565 87.1404L142.373 82.9761C119.878 74.6057 95.1221 74.6057 72.6266 82.9761L61.4351 87.1404C56.3525 89.0316 50.9731 90 45.5502 90H45C20.1472 90 0 69.8528 0 45Z" fill="#E97247"/>
</svg>
